<?xml version="1.0" encoding="UTF-8" standalone="no"?>
<svg
   data-name="Layer 1"
   width="863.35925"
   height="551.172"
   viewBox="0 0 863.35926 551.172"
   version="1.1"
   id="svg106"
   xmlns="http://www.w3.org/2000/svg"
   xmlns:svg="http://www.w3.org/2000/svg">
  <defs
     id="defs110" />
  <path
     id="af9c47ac-a2dc-4072-9acc-a467df334c71-307"
     data-name="Path 438"
     d="m 841.21853,501.12735 a 24.21464,24.21464 0 0 1 -23.38269,-4.11877 c -8.18977,-6.87442 -10.758,-18.196 -12.8467,-28.68191 l -6.17973,-31.01657 12.93769,8.90836 c 9.30465,6.40642 18.81827,13.01866 25.26013,22.29786 6.4418,9.2792 9.2522,21.94707 4.0779,31.988"
     fill="#e6e6e6" />
  <path
     id="a2175a99-769b-4e22-9c2a-ba3916b1dd51-308"
     data-name="Path 439"
     d="m 839.22083,540.83791 c 1.6284,-11.86369 3.3038,-23.88079 2.1588,-35.87167 -1.0146,-10.64933 -4.2637,-21.04881 -10.87828,-29.57938 a 49.20592,49.20592 0 0 0 -12.62466,-11.44039 c -1.26215,-0.79648 -2.42409,1.20354 -1.16733,1.997 a 46.77938,46.77938 0 0 1 18.50447,22.32562 c 4.0286,10.24607 4.6754,21.41582 3.9815,32.3003 -0.4194,6.58217 -1.3107,13.1212 -2.2058,19.65251 a 1.19816,1.19816 0 0 0 0.808,1.4225 1.16348,1.16348 0 0 0 1.4225,-0.808 z"
     fill="#f2f2f2" />
  <path
     id="af3ce5ac-a957-487e-9ef8-bdcad0da5bae-309"
     data-name="Path 442"
     d="m 827.49979,521.80146 a 17.82511,17.82511 0 0 1 -15.53141,8.01861 c -7.86441,-0.37318 -14.41807,-5.85972 -20.31713,-11.07026 l -17.452,-15.4088 11.54987,-0.55281 c 8.30619,-0.39784 16.82672,-0.771 24.73813,1.79338 7.91141,2.56438 15.20758,8.72639 16.654,16.91541"
     fill="#e6e6e6" />
  <path
     id="baa57c63-949d-49ac-a818-33ae8c022157-310"
     data-name="Path 443"
     d="m 843.82383,547.6576 c -7.8397,-13.87143 -16.93237,-29.288 -33.18083,-34.21552 a 37.02609,37.02609 0 0 0 -13.95545,-1.44105 c -1.48189,0.128 -1.1118,2.41174 0.367,2.28454 a 34.39821,34.39821 0 0 1 22.27164,5.89215 c 6.27994,4.27453 11.16975,10.21755 15.30784,16.51907 2.5351,3.86051 4.8057,7.88445 7.0764,11.903 0.7255,1.28451 2.8474,0.35697 2.1134,-0.94219 z"
     fill="#f2f2f2" />
  <rect
     id="b0eb2d2e-6002-4ca6-b573-2a3a0ae57324"
     data-name="Rectangle 62"
     x="0.22680999"
     y="14.58304"
     width="531.92377"
     height="252.40706"
     fill="#e6e6e6" />
  <rect
     id="b22521a2-b305-47e5-91b3-f89bb30cedaf"
     data-name="Rectangle 75"
     x="15.43735"
     y="36.22739"
     width="501.50345"
     height="210.59109"
     fill="#ffffff" />
  <rect
     id="b9a97102-17ad-4853-bba8-52d2fbac14c1"
     data-name="Rectangle 80"
     width="531.92377"
     height="22.5977"
     fill="#759e2b"
     style="fill:#279d00;fill-opacity:1"
     x="0"
     y="0" />
  <circle
     id="f3a384f8-0054-45a4-b875-f53a31bc49a8"
     data-name="Ellipse 90"
     cx="16.7929"
     cy="13.28795"
     r="4.1883998"
     fill="#ffffff" />
  <circle
     id="a6ee8772-6be5-4bf0-b917-98ef2062699d"
     data-name="Ellipse 91"
     cx="32.690689"
     cy="13.28795"
     r="4.1883998"
     fill="#ffffff" />
  <circle
     id="a71cc61a-5bfc-4a03-b945-2c535d93104d"
     data-name="Ellipse 92"
     cx="48.589211"
     cy="13.28795"
     r="4.1883998"
     fill="#ffffff" />
  <path
     d="M 492.32331,204.16713 H 243.66449 a 0.77823,0.77823 0 0 1 -0.77819,-0.77819 V 84.20677 a 0.77819,0.77819 0 0 1 1.55638,0 v 118.404 h 247.88063 a 0.77819,0.77819 0 0 1 0,1.55638 z"
     fill="#3f3d56"
     id="path12" />
  <path
     d="m 296.79205,195.60705 h -22.61649 a 2.31263,2.31263 0 0 1 -2.31,-2.30987 v -31.17694 a 2.31263,2.31263 0 0 1 2.31,-2.30986 h 22.61649 a 2.31263,2.31263 0 0 1 2.31006,2.30986 v 31.17694 a 2.31263,2.31263 0 0 1 -2.31006,2.30987 z"
     fill="#759e2b"
     id="path14"
     style="fill:#279d00;fill-opacity:1" />
  <path
     d="m 338.03605,195.60705 h -22.61649 a 2.31264,2.31264 0 0 1 -2.31006,-2.30987 v -60.74811 a 2.31264,2.31264 0 0 1 2.31006,-2.30986 h 22.61649 a 2.31263,2.31263 0 0 1 2.31006,2.30986 v 60.74811 a 2.31263,2.31263 0 0 1 -2.31006,2.30987 z"
     fill="#759e2b"
     id="path16"
     style="fill:#279d00;fill-opacity:1" />
  <path
     d="m 379.28005,195.60705 h -22.61649 a 2.31263,2.31263 0 0 1 -2.31006,-2.30987 v -31.17694 a 2.31263,2.31263 0 0 1 2.31006,-2.30986 h 22.61649 a 2.31263,2.31263 0 0 1 2.31005,2.30986 v 31.17694 a 2.31263,2.31263 0 0 1 -2.31005,2.30987 z"
     fill="#759e2b"
     id="path18"
     style="fill:#279d00;fill-opacity:1" />
  <path
     d="m 420.52404,195.60705 h -22.61648 a 2.26208,2.26208 0 0 1 -2.31006,-2.20522 V 120.7716 a 2.26208,2.26208 0 0 1 2.31006,-2.20522 h 22.61648 a 2.26208,2.26208 0 0 1 2.31006,2.20522 v 72.63023 a 2.26208,2.26208 0 0 1 -2.31006,2.20522 z"
     fill="#759e2b"
     id="path20"
     style="fill:#279d00;fill-opacity:1" />
  <path
     d="m 461.76804,195.60705 h -22.61649 a 2.31263,2.31263 0 0 1 -2.31,-2.30987 v -93.432 a 2.31264,2.31264 0 0 1 2.31,-2.30987 h 22.61649 a 2.31264,2.31264 0 0 1 2.31006,2.30987 v 93.432 a 2.31263,2.31263 0 0 1 -2.31006,2.30987 z"
     fill="#759e2b"
     id="path22"
     style="fill:#279d00;fill-opacity:1" />
  <circle
     cx="285.4838"
     cy="145.80298"
     r="4.6691298"
     fill="#3f3d56"
     id="circle24" />
  <circle
     cx="326.72781"
     cy="115.45363"
     r="4.6691298"
     fill="#3f3d56"
     id="circle26" />
  <circle
     cx="367.9718"
     cy="145.80298"
     r="4.6691298"
     fill="#3f3d56"
     id="circle28" />
  <circle
     cx="409.21579"
     cy="100.66804"
     r="4.6691298"
     fill="#3f3d56"
     id="circle30" />
  <circle
     cx="450.45981"
     cy="83.54789"
     r="4.6691298"
     fill="#3f3d56"
     id="circle32" />
  <polygon
     points="326.728,113.938 367.873,144.757 408.761,100.013 408.925,99.946 450.169,83.328 450.751,84.772 409.671,101.323 368.07,146.849 326.728,115.883 285.95,146.426 285.017,145.18 "
     fill="#3f3d56"
     id="polygon34" />
  <rect
     x="72.127121"
     y="61.967312"
     width="70.630539"
     height="5.3087602"
     fill="#e6e6e6"
     id="rect36" />
  <rect
     x="72.127121"
     y="77.55204"
     width="109.06894"
     height="5.3087502"
     fill="#759e2b"
     id="rect38"
     style="fill:#279d00;fill-opacity:1" />
  <rect
     x="73.261169"
     y="92.394417"
     width="88.888786"
     height="5.3087502"
     fill="#e6e6e6"
     id="rect40" />
  <rect
     x="72.127121"
     y="108.67991"
     width="51.89183"
     height="5.3087502"
     fill="#e6e6e6"
     id="rect42" />
  <rect
     x="72.127121"
     y="124.58739"
     width="78.31823"
     height="5.3087502"
     fill="#759e2b"
     id="rect44"
     style="fill:#279d00;fill-opacity:1" />
  <rect
     x="39.934959"
     y="60.297359"
     width="8.6486502"
     height="8.6486397"
     fill="#e6e6e6"
     id="rect46" />
  <rect
     x="39.934959"
     y="75.88208"
     width="8.6486502"
     height="8.6486301"
     fill="#759e2b"
     id="rect48"
     style="fill:#279d00;fill-opacity:1" />
  <rect
     x="39.934959"
     y="90.72448"
     width="8.6486502"
     height="8.6486502"
     fill="#e6e6e6"
     id="rect50" />
  <rect
     x="39.934959"
     y="107.00997"
     width="8.6486502"
     height="8.6486502"
     fill="#e6e6e6"
     id="rect52" />
  <rect
     x="39.934959"
     y="122.91744"
     width="8.6486502"
     height="8.6486502"
     fill="#759e2b"
     id="rect54"
     style="fill:#279d00;fill-opacity:1" />
  <rect
     x="72.127121"
     y="140.5943"
     width="70.630539"
     height="5.3087502"
     fill="#e6e6e6"
     id="rect56" />
  <rect
     x="72.127121"
     y="156.17905"
     width="109.06894"
     height="5.3087502"
     fill="#759e2b"
     id="rect58"
     style="fill:#279d00;fill-opacity:1" />
  <rect
     x="73.261169"
     y="171.02142"
     width="88.888786"
     height="5.3087502"
     fill="#e6e6e6"
     id="rect60" />
  <rect
     x="72.127121"
     y="187.30692"
     width="51.89183"
     height="5.3087502"
     fill="#e6e6e6"
     id="rect62" />
  <rect
     x="72.127121"
     y="203.21439"
     width="78.31823"
     height="5.3087502"
     fill="#e6e6e6"
     id="rect64" />
  <rect
     x="39.934959"
     y="138.92436"
     width="8.6486502"
     height="8.6486502"
     fill="#e6e6e6"
     id="rect66" />
  <rect
     x="39.934959"
     y="154.50908"
     width="8.6486502"
     height="8.6486301"
     fill="#759e2b"
     id="rect68"
     style="fill:#279d00;fill-opacity:1" />
  <rect
     x="39.934959"
     y="169.35149"
     width="8.6486502"
     height="8.6486502"
     fill="#e6e6e6"
     id="rect70" />
  <rect
     x="39.934959"
     y="185.63696"
     width="8.6486502"
     height="8.6486502"
     fill="#e6e6e6"
     id="rect72" />
  <rect
     x="39.934959"
     y="201.54445"
     width="8.6486502"
     height="8.6486502"
     fill="#e6e6e6"
     id="rect74" />
  <path
     d="m 645.57944,162.80242 c 2.97507,-9.48142 9.74046,-18.17745 19.09685,-21.38268 9.35695,-3.20524 25.67946,-0.20914 30.09216,8.68789 6.35889,12.82263 3.50213,28.52557 0.13009,42.44794 -1.75836,-0.0931 -3.533,-0.16625 -5.31263,-0.2329 l -2.51754,-8.39087 v 8.3082 c -13.89076,-0.42928 -28.35231,-0.1605 -42.82171,0.11747 -1.2969,-9.85664 -1.64229,-20.07363 1.33278,-29.55505 z"
     fill="#2f2e41"
     id="path76" />
  <polygon
     points="773.219,524.09 761.533,528.987 737.084,486.247 754.33,479.019 "
     fill="#ffb7b7"
     id="polygon78" />
  <path
     d="m 780.94586,534.168 -37.67754,15.79009 -0.19974,-0.47656 a 15.90176,15.90176 0 0 1 8.51854,-20.81117 l 9.3e-4,-3.9e-4 23.01219,-9.644 z"
     fill="#2f2e41"
     id="path80" />
  <path
     d="m 601.85899,322.19393 a 8.76574,8.76574 0 0 1 3.55637,-12.9622 l 25.1152,-75.78554 16.82,8.971 -29.97638,71.67381 a 8.81325,8.81325 0 0 1 -15.51519,8.1029 z"
     fill="#ffb7b7"
     id="path82" />
  <polygon
     points="632.825,537.677 620.155,537.676 614.128,488.807 632.827,488.808 "
     fill="#ffb7b7"
     id="polygon84" />
  <path
     d="m 636.05589,549.95806 -40.85247,-0.002 v -0.51672 a 15.90177,15.90177 0 0 1 15.90092,-15.90066 h 10e-4 l 24.9513,10e-4 z"
     fill="#2f2e41"
     id="path86" />
  <polygon
     points="632.524,261.443 638.839,253.979 683.623,259.72 686.494,267.184 685.92,274.648 630.801,267.759 "
     fill="#ffb7b7"
     id="polygon88" />
  <circle
     cx="665.85901"
     cy="172.48495"
     r="20.066851"
     fill="#ffb8b8"
     id="circle90" />
  <path
     d="m 686.79879,267.71936 -54.65674,-5.814 -2.36816,-7.74414 c -0.73584,-1.00879 -7.67334,-10.84082 -6.13477,-20.66943 a 17.11819,17.11819 0 0 1 7.39527,-11.46241 l 13.28906,-15.56006 11.69067,-6.959 23.04712,-2.3042 0.0793,0.0176 20.69067,4.68213 -0.251,37.92773 z"
     fill="#cccccc"
     id="path92" />
  <path
     d="m 633.519,271.7389 -15.31347,-1.81836 0.04,-0.481 c 0.14087,-1.69092 3.49,-41.51367 6.91992,-50.66016 3.50391,-9.34326 18.67993,-12.2539 19.32422,-12.373 l 0.186,-0.0342 3.37281,2.02343 -9.30713,29.085 z"
     fill="#cccccc"
     id="path94" />
  <path
     d="m 686.49422,271.77766 v 12.7535 c 0,0 14.92805,19.39923 6.88987,34.32729 0,0 17.22467,32.15273 18.373,43.63585 l 16.07636,52.82234 c 0,0 40.19092,40.19092 36.746,68.89871 l 2.29662,9.1865 -26.4112,11.48315 -5.74156,-8.03818 -44.78416,-76.93689 -37.89429,-70.047 -6.88987,82.67845 c 0,0 4.59325,64.30546 -8.03818,71.19533 l -1.14832,10.33481 H 609.164 v -9.82394 c 0,0 -9.94148,-34.96022 -4.19993,-61.37139 l -2.29662,-111.38625 c 0,0 10.33481,-47.08079 22.96624,-55.119 l 4.59325,-11.48312 z"
     fill="#2f2e41"
     id="path96" />
  <path
     d="m 667.40591,298.14638 a 9.02766,9.02766 0 0 1 1.358,0.41978 l 35.03179,-24.11374 -0.80161,-10.30066 15.38739,-3.24161 3.19125,18.09738 a 6.86041,6.86041 0 0 1 -3.72174,7.34421 l -43.39415,21.401 a 9.00181,9.00181 0 1 1 -7.05092,-9.60637 z"
     fill="#ffb7b7"
     id="path98" />
  <path
     d="m 703.46481,275.78382 -7.13013,-47.56782 -5.85278,-24.57276 8.74487,-1.82763 c 0.238,-0.0884 7.35815,-2.49512 13.10693,1.38037 4.13794,2.78955 6.43018,8.08349 6.8125,15.73437 l 2.31641,54.43018 z"
     fill="#cccccc"
     id="path100" />
  <path
     d="m 652.07063,146.35438 a 25.20457,25.20457 0 0 1 38.31986,21.99693 c -11.21678,0.51584 -22.99987,0.65013 -34.94781,0.67333 l -2.82368,-6.91076 -1.66472,6.91587 q -5.46093,-5.3e-4 -10.9426,-0.0144 a 25.7352,25.7352 0 0 1 12.05895,-22.66097 z"
     fill="#2f2e41"
     id="path102" />
  <path
     d="M 862.35923,551.172 H 481.35926 a 1,1 0 1 1 0,-2 h 380.99997 a 1,1 0 0 1 0,2 z"
     fill="#cbcbcb"
     id="path104" />
</svg>
