<?xml version="1.0" encoding="UTF-8" standalone="no"?>
<svg
   data-name="Layer 1"
   width="773.09924"
   height="600"
   viewBox="0 0 773.09925 600"
   version="1.1"
   id="svg48"
   xmlns="http://www.w3.org/2000/svg"
   xmlns:svg="http://www.w3.org/2000/svg">
  <defs
     id="defs52" />
  <path
     d="m 11.89254,552.60436 c 5.05211,17.52641 19.80364,29.79509 35.19135,40.21717 q 3.22281,2.18325 6.44766,4.266 c 0.0146,0.006 0.0296,0.02 0.0443,0.0265 0.10343,0.0665 0.20707,0.133 0.30345,0.19991 0.44371,0.286 0.88758,0.57223 1.32761,0.85495 l -0.24171,0.10858 c 0,0 -0.23734,0.12621 0.0223,0.0202 0.0773,-0.0323 0.15825,-0.0614 0.23537,-0.0939 8.93929,-3.60536 18.03735,-7.4764 24.888,-14.23042 7.10651,-7.0136 11.25952,-18.01412 7.41141,-27.228 a 17.5918,17.5918 0 0 0 -1.90481,-3.41886 c -0.31214,-0.44666 -0.64831,-0.87416 -0.99832,-1.29373 a 18.85591,18.85591 0 0 0 -32.3856,5.72979 c -1.1305,-10.52575 7.54879,-19.34265 15.90135,-25.84822 8.35623,-6.50228 17.85126,-13.58341 19.46674,-24.05073 0.90215,-5.82389 -1.12306,-11.46779 -4.81223,-15.99853 -0.11422,-0.13766 -0.22828,-0.27513 -0.34591,-0.409 A 27.51849,27.51849 0 0 0 64.75632,481.96722 C 51.94311,480.63555 39.49705,487.41782 30.18854,496.32663 15.2065,510.66036 6.14923,532.67687 11.89249,552.6043 Z"
     fill="#f1f1f1"
     id="path2" />
  <path
     d="m 35.97674,529.68 a 46.77976,46.77976 0 0 0 -5.60443,12.36092 40.61933,40.61933 0 0 0 -1.404,11.9968 52.04362,52.04362 0 0 0 6.81623,23.68461 74.90284,74.90284 0 0 0 11.29937,15.09919 q 3.22281,2.18325 6.44766,4.266 c 0.0146,0.006 0.0296,0.02 0.0443,0.0265 0.10343,0.0665 0.20707,0.133 0.30345,0.19991 0.44371,0.286 0.88758,0.57223 1.32761,0.85495 0,0 -0.479,0.23479 -0.21938,0.12882 0.0773,-0.0323 0.15825,-0.0614 0.23537,-0.0939 a 41.40487,41.40487 0 0 1 13.249,-35.6508 41.75957,41.75957 0 0 1 17.14558,-9.22645 c -0.31214,-0.44666 -0.64831,-0.87416 -0.99832,-1.29373 a 43.29621,43.29621 0 0 0 -7.14663,2.70436 42.424,42.424 0 0 0 -19.1818,18.49347 43.37374,43.37374 0 0 0 -4.72252,23.80133 c -0.3673,-0.33284 -0.735,-0.67291 -1.09168,-1.00976 -6.79289,-6.33309 -12.82634,-13.60244 -16.90958,-21.99188 a 48.41654,48.41654 0 0 1 -5.06985,-22.90746 c 0.33325,-8.65329 3.781,-16.66846 8.77295,-23.64613 a 101.345,101.345 0 0 1 19.2105,-19.79843 115.15818,115.15818 0 0 1 23.89219,-14.75057 0.828,0.828 0 0 0 0.41668,-1.06262 0.70421,0.70421 0 0 0 -0.34591,-0.409 0.613,0.613 0 0 0 -0.53243,0.0226 c -1.0539,0.48517 -2.10048,0.977 -3.13867,1.49006 a 116.46492,116.46492 0 0 0 -24.06247,15.87266 c -7.08283,6.03856 -13.75087,12.93757 -18.73324,20.83851 z"
     fill="#ffffff"
     id="path4" />
  <polygon
     points="238.265,584.987 251.69,584.987 258.076,533.207 238.263,533.208 "
     fill="#ffb7b7"
     id="polygon6" />
  <path
     d="m 234.84105,580.60424 26.43742,-10e-4 h 10e-4 a 16.84892,16.84892 0 0 1 16.848,16.84773 v 0.5475 L 234.84185,598 Z"
     fill="#2f2e41"
     id="path8" />
  <polygon
     points="165.581,584.987 179.006,584.987 185.392,533.207 165.579,533.208 "
     fill="#ffb7b7"
     id="polygon10" />
  <path
     d="m 162.15696,580.60424 26.43742,-10e-4 h 0.001 a 16.84891,16.84891 0 0 1 16.848,16.84773 v 0.5475 L 162.15776,598 Z"
     fill="#2f2e41"
     id="path12" />
  <polygon
     points="201.646,409.149 220.682,477.507 232.796,573.553 267.407,571.823 244.045,350.309 160.112,350.309 160.112,487.025 163.573,575.284 192.127,575.284 "
     fill="#2f2e41"
     id="polygon14" />
  <circle
     cx="193.30585"
     cy="206.67143"
     r="20.76688"
     fill="#ffb8b8"
     id="circle16" />
  <polygon
     points="220.682,251.667 207.703,239.229 201.117,232.849 184.677,232.849 179.148,238.687 173.956,355.501 235.392,353.771 "
     fill="#759e2b"
     id="polygon18"
     style="fill:#279d00;fill-opacity:1" />
  <path
     d="m 174.82148,245.60934 4.66336,-7.56867 1.39364,16.22154 c 0,0 11.24873,36.34205 10.38345,68.35766 -0.86528,32.01561 4.32643,107.29554 -2.59587,108.16083 -6.9223,0.86529 -36.342,2.59586 -36.342,-3.46115 0,-6.05701 -1.73058,-167.00036 -1.73058,-167.00036 z"
     fill="#2f2e41"
     id="path20" />
  <path
     d="m 206.30873,238.04067 11.77709,9.29924 25.9586,9.51816 c 0,0 0,110.75669 5.19172,136.7153 5.19172,25.95861 14.70988,28.55446 2.59587,29.41975 -12.11401,0.86529 -11.24873,-3.46115 -11.24873,-3.46115 0,0 -35.47676,-110.75672 -33.74619,-138.44589 1.73057,-27.68917 -2.25894,-43.04541 -0.52836,-43.04541 z"
     fill="#2f2e41"
     id="path22" />
  <path
     d="m 173.65918,213.16869 c 0,0 1.76443,-3.09861 1.35423,-13.45 -0.4102,-10.35139 15.35253,-4.49678 28.52394,-5.48425 13.17141,-0.98747 10.38327,17.28192 10.38327,17.28192 0,0 0.95024,-1.086 2.98468,-9.90338 2.03444,-8.81738 -2.58483,-17.6042 -2.58483,-17.6042 -1.36045,-9.2654 -8.69232,-6.29583 -8.69232,-6.29583 3.53094,1.37456 2.85278,4.31368 2.85278,4.31368 -2.98882,-5.24021 -10.32069,-2.27064 -10.32069,-2.27064 -9.7786,-6.13631 -19.6891,1.94444 -19.6891,1.94444 -11.813,2.681 -4.88515,12.07543 -4.88515,12.07543 -11.88003,6.00364 0.0732,19.39283 0.0732,19.39283 z"
     fill="#2f2e41"
     id="path24" />
  <path
     d="m 152.35304,414.80782 a 8.76008,8.76008 0 0 0 -1.55337,-13.34245 l 3.74089,-19.66571 -11.39633,-5.1881 -4.89281,27.846 a 8.80758,8.80758 0 0 0 14.10162,10.35028 z"
     fill="#ffb7b7"
     id="path26" />
  <path
     d="m 154.91988,260.31922 -2.29755,-1.23184 c 0,0 -12.41233,4.693 -11.547,8.15413 0.86533,3.46113 -6.9223,124.60128 -4.32644,128.92772 2.59586,4.32644 23.36275,0.86528 23.36275,0.86528 z"
     fill="#2f2e41"
     id="path28" />
  <path
     d="m 253.6999,406.652 a 8.76014,8.76014 0 0 1 -0.30766,-13.429 l -6.42588,-18.959 10.56888,-6.715 8.69856,26.90117 a 8.80758,8.80758 0 0 1 -12.5339,12.20185 z"
     fill="#ffb7b7"
     id="path30" />
  <path
     d="m 243.55682,390.1231 c 0,0 21.046,0.55452 23.01832,-4.08947 1.97232,-4.64399 -22.50152,-123.54147 -22.12346,-127.08905 0.37806,-3.54758 -12.5642,-6.478 -12.5642,-6.478 l -2.105,1.53787 z"
     fill="#2f2e41"
     id="path32" />
  <path
     d="M 382,600 H 1 a 1,1 0 0 1 0,-2 h 381 a 1,1 0 0 1 0,2 z"
     fill="#cbcbcb"
     id="path34" />
  <path
     d="M 773.09924,308 H 421.44114 V 89.06926 h 351.6581 z M 429.62329,299.81785 H 764.9171 V 97.2514 H 429.62329 Z"
     fill="#e5e5e5"
     id="path36" />
  <rect
     x="425.53214"
     y="93.160492"
     width="343.47601"
     height="210.74826"
     fill="#ffffff"
     id="rect38" />
  <path
     d="M 769.00817,146.5736 V 133.63369 H 721.36035 V 93.16048 h -12.94 v 40.47321 H 623.59209 V 93.16048 h -12.94 v 40.47321 H 479.81524 V 93.16048 h -12.94 v 40.47321 h -41.343 v 12.93991 h 41.343 v 50.322 h -41.343 v 12.93992 h 41.343 v 53.91637 h -41.343 v 12.93991 h 111.075 v 27.217 h 12.93962 v -27.217 h 61.10521 v 27.217 h 12.94 v -27.217 h 145.4161 V 263.75184 H 623.59209 v -53.91637 h 145.41608 v -12.93992 h -47.64782 v -50.322 z m -158.35609,0 v 15.81546 H 479.81524 V 146.5736 Z M 479.81524,175.329 h 130.83684 v 21.56658 H 479.81524 Z m 0,88.42287 v -53.9164 h 56.792 v 53.91637 z m 130.83684,0 h -61.10521 v -53.9164 h 61.10521 z m 97.76826,-66.85629 h -84.82825 v -50.322 h 84.82825 z"
     fill="#e6e6e6"
     id="path40" />
  <path
     d="m 679.54742,62.0474 c 0,34.26782 -62.0474,110.60623 -62.0474,110.60623 0,0 -62.0474,-76.33841 -62.0474,-110.60623 a 62.0474,62.0474 0 0 1 124.0948,0 z"
     fill="#759e2b"
     id="path42"
     style="fill:#279d00;fill-opacity:1" />
  <path
     d="M 645.86529,59.34968 A 28.36454,28.36454 0 1 1 617.50075,30.98514 28.35155,28.35155 0 0 1 645.86529,59.34968 Z"
     fill="#ffffff"
     style="isolation:isolate"
     id="path44" />
  <circle
     cx="617.5"
     cy="200.70982"
     r="16.725821"
     fill="#759e2b"
     id="circle46"
     style="fill:#279d00;fill-opacity:1" />
</svg>
